# xmcd
#
# Track frame offsets:
#	150
#	18250
#	33587
#	51895
#	77502
#	94902
#	113882
#	129807
#	154015
#	174567
#	194470
#	208510
#	230370
#	247415
#
# Disc length: 3464 seconds
#
# Revision: 6
# Processed by: cddbd v1.5.2PL0 Copyright (c) Steve Scherf et al.
# Submitted via: EZCDAudioConverter 1.3.4.1
#
DISCID=b50d860e
DTITLE=V/A - Zero Accidents On The Job 1/2
DYEAR=2000
DGENRE=
TTITLE0=Cornershop - Brimful Of Asha [Fatboy Slim Remix]
TTITLE1=Los Amigos Invisibles - Sexy
TTITLE2=Zap Mama With Black Thought and ?uestlove From The Roots - Rafiki
TTITLE3=King Changó - Confesión
TTITLE4=Jorge Ben - Ponta De Lança Africano (Umbabarauma)
TTITLE5=David Byrne And Selena - God's Child
TTITLE6=Shoukichi Kina With Ry Cooder - Jing Jing
TTITLE7=Clinton - People Power In The Disco Hour
TTITLE8=Geggy Tah - Whoever You Are
TTITLE9=Los De Abajo - Pepepez
TTITLE10=Bloque - Majaná
TTITLE11=Vijaya Anand - Aatavu Chanda
TTITLE12=Irakere - Bacalao Con Pan
TTITLE13=David Byrne - Fuzzy Freaky [Mark Walk And Ruby Mix]
EXTD=
EXTT0=
EXTT1=
EXTT2=
EXTT3=
EXTT4=
EXTT5=
EXTT6=
EXTT7=
EXTT8=
EXTT9=
EXTT10=
EXTT11=
EXTT12=
EXTT13=
PLAYORDER=
